<?xml version="1.0" encoding="UTF-8"?>
<svg version="1.1" xmlns="http://www.w3.org/2000/svg" width="512" height="512">
<path d="M0 0 C20.46 0 40.92 0 62 0 C64.31 6.93 66.62 13.86 69 21 C77.54702049 25.98989608 77.54702049 25.98989608 86.98828125 26.86328125 C91.61777233 25.53628057 95.50242607 23.08896917 99.609375 20.61914062 C101.5390625 19.51953125 101.5390625 19.51953125 105 18 C108.43332154 19.15940273 110.60491176 21.36190487 113.12597656 23.89892578 C113.92650452 24.6996048 114.72703247 25.50028381 115.55181885 26.32522583 C116.40612488 27.18985443 117.26043091 28.05448303 118.140625 28.9453125 C119.46389801 30.27283035 119.46389801 30.27283035 120.81390381 31.62716675 C123.15194543 33.97450131 125.48555874 36.32606785 127.81713867 38.67980957 C130.19996526 41.08313927 132.58850348 43.48077767 134.9765625 45.87890625 C139.65631862 50.58071467 144.33031867 55.28818664 149 60 C147.16901477 65.76320811 144.46994361 70.50997366 141.36328125 75.68359375 C139.70780532 79.71081169 140.047481 81.79659524 141 86 C141.14953125 87.010625 141.2990625 88.02125 141.453125 89.0625 C142.28988675 92.70794262 142.28988675 92.70794262 146 98 C156.395 101.465 156.395 101.465 167 105 C167 125.46 167 145.92 167 167 C156.605 170.465 156.605 170.465 146 174 C141.01010392 182.54702049 141.01010392 182.54702049 140.13671875 191.98828125 C141.46371943 196.61777233 143.91103083 200.50242607 146.38085938 204.609375 C149.14500473 209.46013096 149.14500473 209.46013096 148.47206116 211.96557617 C146.42129224 214.79978801 143.92536446 216.15237125 140.96655273 218.01171875 C130.22017937 225.5264745 120.92387312 234.2403256 118.52471924 247.62548828 C117.53706383 255.48740723 117.29812775 263.33746147 117.28515625 271.25 C117.28386074 271.94252995 117.28256522 272.63505989 117.28123045 273.34857559 C117.28663119 282.01561025 117.52101696 290.67100851 117.8360647 299.33167362 C118.18152981 308.95547305 118.31230289 318.58295756 118.45237637 328.21154785 C118.47355455 329.64331207 118.49483496 331.07507479 118.51622009 332.50683594 C118.52647246 333.2064595 118.53672483 333.90608307 118.54728788 334.62690735 C118.62233709 339.3970402 118.75680595 344.16249054 118.9131012 348.93066406 C118.96469643 350.83264053 118.96469643 350.83264053 119.01733398 352.77304077 C119.08154289 355.11864316 119.16144511 357.46389902 119.26121521 359.80825806 C119.51129134 370.29791336 116.77359501 378.86199127 109.97265625 386.93359375 C102.40227852 394.8637518 93.57353735 399.98340774 82.42524719 400.48101807 C80.44016749 400.49241775 78.45488104 400.48242767 76.4699707 400.45410156 C74.82896141 400.45497772 74.82896141 400.45497772 73.15480042 400.45587158 C69.57812547 400.45310923 66.00230863 400.42210417 62.42578125 400.390625 C59.93043981 400.38315606 57.43509247 400.37746621 54.93974304 400.37347412 C48.40157615 400.35826943 41.86376993 400.31903191 35.32574463 400.2746582 C28.64236457 400.23140321 21.95887167 400.2154393 15.27539062 400.1953125 C2.18344071 400.15253285 -10.90826038 400.08512316 -24 400 C-23.40353157 402.05433415 -22.79746959 404.10588406 -22.1875 406.15625 C-21.85105469 407.29900391 -21.51460938 408.44175781 -21.16796875 409.61914062 C-18.4368648 417.52472749 -13.285677 426.52981292 -6 431 C-3.03764827 431.43881668 -3.03764827 431.43881668 0.234375 431.37109375 C2.05582031 431.39719727 2.05582031 431.39719727 3.9140625 431.42382812 C6.45571836 431.43288698 8.99739083 431.43814298 11.5390625 431.43945312 C19.99440397 431.56905402 25.80476157 432.32368479 32.2421875 437.96484375 C32.78101563 438.61582031 33.31984375 439.26679688 33.875 439.9375 C34.42929687 440.58589844 34.98359375 441.23429687 35.5546875 441.90234375 C39.83102762 448.10881577 39.37234863 454.46437307 39.37060547 461.75512695 C39.37496602 463.79659286 39.41128866 465.8358708 39.44921875 467.87695312 C39.47525045 476.66265239 38.97489947 482.46403122 33.03515625 489.2421875 C32.38417969 489.78101563 31.73320312 490.31984375 31.0625 490.875 C30.41410156 491.42929687 29.76570313 491.98359375 29.09765625 492.5546875 C23.51327861 496.40239649 18.37470027 496.28842466 11.80973816 496.26742554 C10.77388826 496.27195665 9.73803836 496.27648776 8.67079908 496.28115618 C5.1947942 496.2938311 1.71894538 496.2921778 -1.75708008 496.29052734 C-4.24727073 496.29651066 -6.73745953 496.30331575 -9.22764587 496.31088257 C-15.2929861 496.32673207 -21.35826481 496.33299184 -27.42362002 496.33410732 C-32.35478823 496.33505812 -37.28594362 496.33917002 -42.21710777 496.34550858 C-56.20278044 496.36311955 -70.18842244 496.37234771 -84.17410628 496.37084763 C-85.30475839 496.37072776 -85.30475839 496.37072776 -86.45825195 496.37060547 C-87.21294211 496.37052371 -87.96763228 496.37044195 -88.74519183 496.37035771 C-100.97419044 496.36954492 -113.20306584 496.38868107 -125.43202881 496.4168822 C-137.99345236 496.44562106 -150.55481585 496.45942194 -163.11627311 496.45769465 C-170.16664215 496.45703108 -177.21688205 496.4625089 -184.26722145 496.48405075 C-190.89842597 496.50418233 -197.52940445 496.50357859 -204.16063881 496.48901749 C-206.59386086 496.48692444 -209.02709985 496.49165964 -211.46029282 496.5037384 C-214.78344565 496.51916598 -218.10565483 496.50989812 -221.42878723 496.49447632 C-222.39037477 496.50476344 -223.35196231 496.51505057 -224.34268886 496.52564943 C-231.5029225 496.45228167 -236.81096021 494.79457668 -242.2421875 490.03515625 C-242.78101563 489.38417969 -243.31984375 488.73320312 -243.875 488.0625 C-244.42929688 487.41410156 -244.98359375 486.76570313 -245.5546875 486.09765625 C-249.83102762 479.89118423 -249.37234863 473.53562693 -249.37060547 466.24487305 C-249.37496602 464.20340714 -249.41128866 462.1641292 -249.44921875 460.12304688 C-249.47525045 451.33734761 -248.97489947 445.53596878 -243.03515625 438.7578125 C-242.05869141 437.94957031 -242.05869141 437.94957031 -241.0625 437.125 C-240.41410156 436.57070313 -239.76570313 436.01640625 -239.09765625 435.4453125 C-234.68440746 432.40452656 -230.90844896 431.7597891 -225.59765625 431.76171875 C-224.37755859 431.74560547 -223.15746094 431.72949219 -221.90039062 431.71289062 C-219.34575372 431.69598972 -216.79101261 431.69074525 -214.23632812 431.69726562 C-206.82758773 431.8231052 -206.82758773 431.8231052 -200.34765625 428.77734375 C-193.07822093 420.17739614 -188.67848559 410.89663176 -186 400 C-186.56707829 400.00368717 -187.13415659 400.00737434 -187.71841908 400.01117325 C-201.55856363 400.0997635 -215.39865807 400.16556947 -229.23902607 400.20724869 C-235.93233028 400.22781659 -242.62541652 400.25633102 -249.31860352 400.30175781 C-255.78307794 400.34535562 -262.24735541 400.3691668 -268.71196556 400.37950897 C-271.17301723 400.38687528 -273.63405864 400.40125978 -276.09502602 400.42292023 C-279.55357423 400.45213853 -283.01131808 400.45594819 -286.4699707 400.45410156 C-287.47770538 400.46848267 -288.48544006 400.48286377 -289.52371216 400.49768066 C-300.72746495 400.43334106 -309.88884732 396.74316087 -318 389 C-326.54462453 380.04929431 -329.62084596 370.15917634 -329.50793457 357.95654297 C-329.51417453 356.90134901 -329.5204145 355.84615505 -329.52684355 354.75898552 C-329.54269012 351.2531531 -329.53020158 347.74802403 -329.51757812 344.2421875 C-329.52300292 341.71656898 -329.53012758 339.19095363 -329.53881836 336.66534424 C-329.55512556 330.53558145 -329.55279249 324.40607547 -329.5411678 318.27630949 C-329.53210831 313.29142877 -329.5309203 308.30660291 -329.53526306 303.32171631 C-329.53587599 302.61033945 -329.53648893 301.89896259 -329.53712043 301.16602886 C-329.53839942 299.72056276 -329.53969628 298.27509668 -329.5410108 296.82963061 C-329.55239778 283.29784445 -329.53933252 269.76616694 -329.51780933 256.2343986 C-329.49994003 244.6412374 -329.50304467 233.04823644 -329.52148438 221.45507812 C-329.54292444 207.96939268 -329.55129932 194.4838023 -329.53903532 180.99810219 C-329.53776122 179.5581627 -329.53650373 178.1182232 -329.53526306 176.67828369 C-329.53433741 175.61576207 -329.53433741 175.61576207 -329.53339306 174.53177536 C-329.52994954 169.55694717 -329.53574686 164.58217963 -329.54518127 159.60736084 C-329.55761709 152.90296326 -329.54867445 146.19891364 -329.52560425 139.49452972 C-329.52032867 137.03838349 -329.52181111 134.58221173 -329.53065491 132.12607574 C-329.54163905 128.76486345 -329.52781097 125.40460886 -329.50793457 122.04345703 C-329.51685746 121.07913694 -329.52578034 120.11481686 -329.53497362 119.12127495 C-329.40909106 108.09300649 -325.61066104 98.97235582 -318 91 C-305.75909164 79.31444476 -292.53377878 79.41146875 -276.5559082 79.45410156 C-274.38681805 79.44535753 -272.21773434 79.43486887 -270.04866028 79.42277527 C-264.18581061 79.39499655 -258.32317226 79.3915088 -252.46026635 79.39249516 C-246.32365746 79.38935908 -240.18714277 79.36372638 -234.05058289 79.34051514 C-222.44159636 79.30000488 -210.83266594 79.27962608 -199.22361964 79.26654124 C-186.00228408 79.25065438 -172.78104377 79.21223159 -159.55976355 79.17194796 C-132.37320769 79.08961703 -105.18665452 79.03548236 -78 79 C-78.42466553 78.2589502 -78.42466553 78.2589502 -78.85791016 77.50292969 C-80.13037253 75.26099722 -81.37775292 73.00604986 -82.625 70.75 C-83.07101563 69.97269531 -83.51703125 69.19539063 -83.9765625 68.39453125 C-84.5953125 67.26337891 -84.5953125 67.26337891 -85.2265625 66.109375 C-85.61408691 65.41811523 -86.00161133 64.72685547 -86.40087891 64.01464844 C-87 62 -87 62 -86.22078133 59.86813736 C-84.7291421 57.58551155 -83.03631325 55.79709115 -81.10107422 53.87402344 C-80.3003952 53.07349548 -79.49971619 52.27296753 -78.67477417 51.44818115 C-77.81014557 50.59387512 -76.94551697 49.73956909 -76.0546875 48.859375 C-75.1696756 47.97719299 -74.2846637 47.09501099 -73.37283325 46.18609619 C-71.02549869 43.84805457 -68.67393215 41.51444126 -66.32019043 39.18286133 C-63.91686073 36.80003474 -61.51922233 34.41149652 -59.12109375 32.0234375 C-54.41928533 27.34368138 -49.71181336 22.66968133 -45 18 C-39.23679189 19.83098523 -34.49002634 22.53005639 -29.31640625 25.63671875 C-25.28918831 27.29219468 -23.20340476 26.952519 -19 26 C-17.989375 25.85046875 -16.97875 25.7009375 -15.9375 25.546875 C-12.29205738 24.71011325 -12.29205738 24.71011325 -7 21 C-4.69 14.07 -2.38 7.14 0 0 Z M11.2265625 123.15625 C7.29445573 129.06693278 7.30136723 135.12115424 8 142 C9.77342433 148.64472914 14.4466647 153.17367959 20 157 C25.99887004 159.94062257 32.8828353 160.09883788 39.3125 158.3828125 C45.44132861 155.67750925 50.23952792 150.59136305 53.171875 144.609375 C55.07805857 138.60309848 55.06438687 131.49708442 52.5 125.6875 C49.01962742 119.75476525 43.5643807 115.06836256 37 113 C25.27605038 111.57391138 18.69257639 114.31382015 11.2265625 123.15625 Z " fill="#000000" transform="translate(337,8)"/>
<path d="M0 0 C58.08 0 116.16 0 176 0 C176 12.54 176 25.08 176 38 C177.65 38.33 179.3 38.66 181 39 C196.16671961 42.50793646 196.16671961 42.50793646 200.15234375 47.92578125 C201.36142462 50.93562086 202.22470117 53.85500248 203 57 C203.38285156 57.67804688 203.76570312 58.35609375 204.16015625 59.0546875 C205.35863512 61.83069903 204.93206622 63.1254418 204 66 C202.38834129 69.27201635 200.54700194 72.41290471 198.70703125 75.56054688 C196.61433512 79.04518811 196.61433512 79.04518811 196.17204285 82.96537781 C197.23148425 85.56884947 198.6544697 87.04987821 200.63012695 89.05004883 C201.39794998 89.83378372 202.16577301 90.61751862 202.9568634 91.42500305 C204.20991524 92.67835701 204.20991524 92.67835701 205.48828125 93.95703125 C206.34302536 94.81938889 207.19776947 95.68174652 208.07841492 96.57023621 C209.88782852 98.39045665 211.70123862 100.20671169 213.51831055 102.01928711 C216.30511005 104.80511263 219.06990917 107.6115703 221.83398438 110.41992188 C223.59244799 112.1835908 225.3521717 113.94600442 227.11328125 115.70703125 C227.94257645 116.55272171 228.77187164 117.39841217 229.626297 118.26972961 C230.40357651 119.0377037 231.18085602 119.8056778 231.98168945 120.59692383 C232.66262161 121.27991043 233.34355377 121.96289703 234.04512024 122.6665802 C235.90378004 124.2446176 235.90378004 124.2446176 238.13592529 123.76667786 C240.06396576 122.97369144 241.88357518 122.11441059 243.71484375 121.1171875 C244.40126953 120.75496094 245.08769531 120.39273438 245.79492188 120.01953125 C247.22353583 119.25638834 248.64805493 118.48552993 250.06835938 117.70703125 C255.29981424 114.97118138 255.29981424 114.97118138 258.5625 115.10546875 C259.7690625 115.54826172 259.7690625 115.54826172 261 116 C262.68802734 116.52400391 262.68802734 116.52400391 264.41015625 117.05859375 C274.03930249 120.69398265 274.03930249 120.69398265 276.6953125 124.3046875 C277.70438847 126.85518662 278.38627979 129.32851205 279 132 C279.57118461 133.65008887 280.15390875 135.29624427 280.75 136.9375 C281.64854907 139.57101349 282 141.1656156 282 144 C301.8 144 321.6 144 342 144 C342.66 141.03 343.32 138.06 344 135 C344.58412072 132.84268021 345.20409458 130.69442674 345.875 128.5625 C346.18179687 127.55316406 346.48859375 126.54382813 346.8046875 125.50390625 C348 123 348 123 352 121 C352 144.43 352 167.86 352 192 C235.84 192 119.68 192 0 192 C0 128.64 0 65.28 0 0 Z " fill="#68D5F3" transform="translate(56,136)"/>
<path d="M0 0 C11.88 0 23.76 0 36 0 C42 16 42 16 42 19 C42.66902344 19.12375 43.33804688 19.2475 44.02734375 19.375 C51.67682628 21.01784189 58.23047032 23.78473856 65.12280273 27.39453125 C69.17340142 29.4689392 69.17340142 29.4689392 73.625 29.9296875 C77.65571635 28.35187419 81.36874442 26.25468464 85.16015625 24.1796875 C88.35012767 22.85455494 88.89981283 22.73431763 92 24 C93.92768649 25.6022424 95.6853254 27.1935998 97.45703125 28.953125 C98.21786263 29.69897858 98.21786263 29.69897858 98.99406433 30.4598999 C100.06109392 31.51177075 101.12411367 32.56772275 102.18334961 33.62744141 C103.80893795 35.24645236 105.45699546 36.83995991 107.10742188 38.43359375 C108.14208984 39.4594622 109.17534327 40.48675971 110.20703125 41.515625 C110.95059624 42.22685516 110.95059624 42.22685516 111.70918274 42.95245361 C113.06567383 44.33691406 113.06567383 44.33691406 115 47 C114.78299221 52.24090647 111.67007748 56.56373101 109.1796875 61.0625 C107.83036673 64.42239808 107.83202553 65.62407379 109 69 C109.88638593 70.87913817 110.82894765 72.73234562 111.8125 74.5625 C119 88.5564759 119 88.5564759 119 96 C119.70125 96.18175781 120.4025 96.36351563 121.125 96.55078125 C122.07375 96.80214844 123.0225 97.05351563 124 97.3125 C124.928125 97.55613281 125.85625 97.79976563 126.8125 98.05078125 C130.6027038 99.17948165 134.29710405 100.61141402 138 102 C138 113.88 138 125.76 138 138 C135.23625 138.99 132.4725 139.98 129.625 141 C128.75568848 141.31324219 127.88637695 141.62648437 126.99072266 141.94921875 C126.3054248 142.19285156 125.62012695 142.43648437 124.9140625 142.6875 C124.2123291 142.93886719 123.5105957 143.19023437 122.78759766 143.44921875 C121 144 121 144 119 144 C118.87625 144.66902344 118.7525 145.33804688 118.625 146.02734375 C116.98215811 153.67682628 114.21526144 160.23047032 110.60546875 167.12280273 C108.5310608 171.17340142 108.5310608 171.17340142 108.0703125 175.625 C109.64812581 179.65571635 111.74531536 183.36874442 113.8203125 187.16015625 C115.14544506 190.35012767 115.26568237 190.89981283 114 194 C112.3977576 195.92768649 110.8064002 197.6853254 109.046875 199.45703125 C108.54963928 199.96425217 108.05240356 200.47147308 107.5401001 200.99406433 C106.48822925 202.06109392 105.43227725 203.12411367 104.37255859 204.18334961 C102.75354764 205.80893795 101.16004009 207.45699546 99.56640625 209.10742188 C98.5405378 210.14208984 97.51324029 211.17534327 96.484375 212.20703125 C96.01022156 212.70274124 95.53606812 213.19845123 95.04754639 213.70918274 C93.66308594 215.06567383 93.66308594 215.06567383 91 217 C85.75909353 216.78299221 81.43626899 213.67007748 76.9375 211.1796875 C73.49963376 209.79905505 72.45722278 209.78613067 69 211 C66.23025186 212.23380365 63.52359888 213.58060205 60.8125 214.9375 C54.5599508 217.9888998 48.96263941 220.11585531 42 221 C41.72736328 222.051875 41.72736328 222.051875 41.44921875 223.125 C41.07216797 224.548125 41.07216797 224.548125 40.6875 226 C40.44386719 226.928125 40.20023438 227.85625 39.94921875 228.8125 C38.82051835 232.6027038 37.38858598 236.29710405 36 240 C24.12 240 12.24 240 0 240 C-1.485 235.854375 -1.485 235.854375 -3 231.625 C-3.31324219 230.75568848 -3.62648438 229.88637695 -3.94921875 228.99072266 C-4.19285156 228.3054248 -4.43648438 227.62012695 -4.6875 226.9140625 C-4.93886719 226.2123291 -5.19023437 225.5105957 -5.44921875 224.78759766 C-6 223 -6 223 -6 221 C-6.85658203 220.88785156 -6.85658203 220.88785156 -7.73046875 220.7734375 C-16.56411285 219.34095467 -24.33811133 215.65632996 -32.078125 211.24609375 C-35.45574542 209.80563798 -36.58342418 209.79540385 -40 211 C-43.11093391 212.51254342 -46.12602868 214.15976854 -49.16015625 215.8203125 C-52.35012767 217.14544506 -52.89981283 217.26568237 -56 216 C-57.92768649 214.3977576 -59.6853254 212.8064002 -61.45703125 211.046875 C-61.96425217 210.54963928 -62.47147308 210.05240356 -62.99406433 209.5401001 C-64.06109392 208.48822925 -65.12411367 207.43227725 -66.18334961 206.37255859 C-67.80893795 204.75354764 -69.45699546 203.16004009 -71.10742188 201.56640625 C-72.14208984 200.5405378 -73.17534327 199.51324029 -74.20703125 198.484375 C-74.70274124 198.01022156 -75.19845123 197.53606812 -75.70918274 197.04754639 C-77.06567383 195.66308594 -77.06567383 195.66308594 -79 193 C-78.78299221 187.75909353 -75.67007748 183.43626899 -73.1796875 178.9375 C-71.81339715 175.53534654 -71.81298715 174.42047124 -73 171 C-74.08533337 168.61504949 -75.20321593 166.27835637 -76.375 163.9375 C-79.52596927 157.45672049 -81.61242262 151.09646716 -83 144 C-84.27875 143.7525 -85.5575 143.505 -86.875 143.25 C-92 142 -92 142 -102 138 C-102 126.12 -102 114.24 -102 102 C-86 96 -86 96 -83 96 C-82.92523438 95.42894531 -82.85046875 94.85789062 -82.7734375 94.26953125 C-81.34095467 85.43588715 -77.65632996 77.66188867 -73.24609375 69.921875 C-71.80563798 66.54425458 -71.79540385 65.41657582 -73 62 C-74.51254342 58.88906609 -76.15976854 55.87397132 -77.8203125 52.83984375 C-79.14544506 49.64987233 -79.26568237 49.10018717 -78 46 C-76.3977576 44.07231351 -74.8064002 42.3146746 -73.046875 40.54296875 C-72.54963928 40.03574783 -72.05240356 39.52852692 -71.5401001 39.00593567 C-70.48822925 37.93890608 -69.43227725 36.87588633 -68.37255859 35.81665039 C-66.75354764 34.19106205 -65.16004009 32.54300454 -63.56640625 30.89257812 C-62.5405378 29.85791016 -61.51324029 28.82465673 -60.484375 27.79296875 C-59.77314484 27.04940376 -59.77314484 27.04940376 -59.04754639 26.29081726 C-57.66308594 24.93432617 -57.66308594 24.93432617 -55 23 C-49.75909353 23.21700779 -45.43626899 26.32992252 -40.9375 28.8203125 C-37.57760192 30.16963327 -36.37592621 30.16797447 -33 29 C-31.12086183 28.11361407 -29.26765438 27.17105235 -27.4375 26.1875 C-13.4435241 19 -13.4435241 19 -6 19 C-5.62875 17.081875 -5.62875 17.081875 -5.25 15.125 C-4 10 -4 10 0 0 Z M-1.7734375 107.15625 C-5.70554427 113.06693278 -5.69863277 119.12115424 -5 126 C-3.22657567 132.64472914 1.4466647 137.17367959 7 141 C12.99887004 143.94062257 19.8828353 144.09883788 26.3125 142.3828125 C32.44132861 139.67750925 37.23952792 134.59136305 40.171875 128.609375 C42.07805857 122.60309848 42.06438687 115.49708442 39.5 109.6875 C36.01962742 103.75476525 30.5643807 99.06836256 24 97 C12.27605038 95.57391138 5.69257639 98.31382015 -1.7734375 107.15625 Z " fill="#F9D56F" transform="translate(350,24)"/>
<path d="M0 0 C1.31110317 -0.00256327 1.31110317 -0.00256327 2.64869326 -0.00517833 C5.57680732 -0.00847193 8.5046921 0.00252839 11.43278503 0.01345825 C13.53201797 0.01402239 15.6312513 0.01370575 17.73048401 0.01257324 C23.43045387 0.01199885 29.13033975 0.0237673 34.83029008 0.03772116 C40.78670722 0.05021397 46.74312623 0.05139787 52.69955444 0.05377197 C63.97939211 0.059991 75.25919105 0.07640755 86.53901166 0.09647095 C99.38047402 0.11881679 112.22193821 0.12982008 125.06341517 0.13986182 C151.47977282 0.16077339 177.8960961 0.1959576 204.31242371 0.24050903 C203.31242371 3.24050903 203.31242371 3.24050903 201.50236511 4.22366333 C200.34486755 4.63999023 200.34486755 4.63999023 199.16398621 5.06472778 C198.32351746 5.37088013 197.48304871 5.67703247 196.61711121 5.99246216 C195.73281433 6.30119263 194.84851746 6.6099231 193.93742371 6.92800903 C192.62257996 7.40850708 192.62257996 7.40850708 191.28117371 7.89871216 C184.75010694 10.24050903 184.75010694 10.24050903 181.31242371 10.24050903 C181.31242371 12.22050903 181.31242371 14.20050903 181.31242371 16.24050903 C180.38512892 16.24197559 179.45783413 16.24344215 178.5024395 16.24495316 C155.94316514 16.28154212 133.38403932 16.34098381 110.82488823 16.42441177 C99.91545743 16.46422738 89.00609903 16.49660708 78.09660339 16.51150513 C68.58829253 16.52450855 59.08014081 16.55143976 49.57191956 16.5951221 C44.53698805 16.61776632 39.50225303 16.63341794 34.46726608 16.63239288 C29.7279053 16.63164802 24.98897936 16.64952879 20.24973106 16.68167686 C18.51070959 16.69019361 16.77163943 16.69191377 15.03260612 16.68631172 C12.65636598 16.67967679 10.28151141 16.69757851 7.90541077 16.7215271 C6.87523388 16.70988647 6.87523388 16.70988647 5.82424533 16.69801068 C0.87221113 16.78625048 -1.9264465 18.06598851 -5.68757629 21.24050903 C-9.63685879 25.84163533 -10.26303522 29.67311278 -10.18878174 35.55239868 C-10.19431614 36.37408586 -10.19985053 37.19577304 -10.20555264 38.04235983 C-10.21913453 40.78775637 -10.20420353 43.53223993 -10.18928528 46.27761841 C-10.19306935 48.24904262 -10.19857012 50.22046417 -10.20565796 52.19187927 C-10.21961826 57.54104289 -10.20843862 62.88988507 -10.19194674 68.23903084 C-10.1780948 73.83762997 -10.18455649 79.43621047 -10.18807983 85.03482056 C-10.19078183 94.43660664 -10.17730715 103.83826505 -10.15412903 113.24002075 C-10.12751941 124.10891498 -10.12577227 134.97759573 -10.13751739 145.84651136 C-10.14829756 156.30313313 -10.1421062 166.7596777 -10.12796211 177.21629333 C-10.12220441 181.66592738 -10.12228332 186.1155049 -10.12702751 190.56513977 C-10.13180071 195.80516358 -10.12168121 201.04495372 -10.10007286 206.28493309 C-10.09450953 208.20780334 -10.09403553 210.13069606 -10.09902573 212.05356789 C-10.10498424 214.67884414 -10.09246263 217.30340734 -10.07525635 219.92861938 C-10.08126639 220.68913023 -10.08727644 221.44964107 -10.09346861 222.23319769 C-10.03698117 226.97448493 -9.19639008 230.21481906 -6.68757629 234.24050903 C-2.20459788 238.2861237 0.20949519 239.36512587 6.17963028 239.3719368 C7.43741799 239.37577794 8.69520569 239.37961909 9.99110818 239.38357663 C11.39991019 239.38279629 12.80871214 239.38191749 14.21751404 239.38095093 C15.70401771 239.38353306 17.19052069 239.3865458 18.6770227 239.38995433 C22.77689193 239.39804552 26.87674368 239.39981508 30.97661996 239.4005518 C35.3925602 239.4023987 39.80849129 239.40994421 44.22442627 239.41668701 C53.88762441 239.4302862 63.55081842 239.4362976 73.21402454 239.44069767 C79.24476777 239.44345759 85.27550939 239.44769449 91.30625153 239.45220184 C107.99465967 239.4643969 124.68306653 239.47469554 141.37147903 239.47807693 C142.44020708 239.4782965 143.50893513 239.47851607 144.61004888 239.47874229 C146.21703978 239.4790697 146.21703978 239.4790697 147.85649514 239.47940373 C150.0275143 239.4798472 152.19853346 239.48029377 154.36955261 239.48074341 C155.44645968 239.48096484 156.52336675 239.48118627 157.63290736 239.48141441 C175.08513428 239.48536294 192.53731945 239.50281757 209.98953024 239.52610293 C227.89580069 239.54980178 245.80205019 239.56227813 263.70833659 239.56344485 C273.76672941 239.56436248 283.82506787 239.57013661 293.88344574 239.58826447 C302.44822931 239.60364572 311.01294172 239.60879764 319.57773647 239.60052636 C323.9490725 239.59661275 328.32026514 239.59758399 332.69158363 239.61158371 C336.69251623 239.62428021 340.69319705 239.62316273 344.69412908 239.610993 C346.1423519 239.60902859 347.59059229 239.61214864 349.03879037 239.62083736 C351.00644868 239.63189621 352.97418975 239.62267009 354.94185257 239.61244583 C356.58175734 239.61334146 356.58175734 239.61334146 358.2547915 239.61425519 C363.09366658 239.02278086 366.3317571 237.30068915 369.62492371 233.74050903 C372.53260482 229.43283331 372.47859327 225.57163429 372.51774597 220.55618286 C372.52764557 219.77545914 372.53754517 218.99473541 372.54774475 218.19035339 C372.57933548 215.60944655 372.60410759 213.0285213 372.62882996 210.44754028 C372.64940158 208.65820334 372.67039811 206.86887124 372.69180298 205.07954407 C372.74700213 200.36958737 372.79642094 195.65958698 372.84465027 190.94955444 C372.89488102 186.14350494 372.95055887 181.33751892 373.00578308 176.53152466 C373.11333829 167.10124034 373.21478915 157.67090091 373.31242371 148.24050903 C378.99744905 149.88617427 384.07924007 152.53083687 389.31242371 155.24050903 C389.42950681 169.93145259 389.51753355 184.62233394 389.57148457 199.31365013 C389.59720695 206.13594587 389.6322419 212.9579508 389.68962097 219.78005981 C389.74500128 226.3676956 389.77387291 232.95510941 389.78680992 239.54298782 C389.79602567 242.05233124 389.8140219 244.56165874 389.84107399 247.07087326 C389.87753985 250.5944113 389.88236146 254.11671404 389.88005066 257.64041138 C389.89802704 258.67044281 389.91600342 259.70047424 389.93452454 260.76171875 C389.87908572 268.60941777 387.92765393 275.22469967 382.58612537 281.15808678 C374.41797119 288.98493477 364.67068288 288.6743797 354.05387878 288.62818909 C352.49349745 288.63236488 350.93311915 288.63784374 349.37274647 288.6445089 C345.09641049 288.65894984 340.82026747 288.65472304 336.54392099 288.64734209 C331.92762351 288.64260944 327.31136772 288.65512105 322.69508362 288.6653595 C313.6563074 288.68255027 304.61760069 288.68338702 295.57881236 288.67814659 C288.23257285 288.67410459 280.88635388 288.67554882 273.54011536 288.68089485 C272.49442251 288.68164327 271.44872966 288.6823917 270.37134916 288.6831628 C268.24702127 288.68469428 266.12269339 288.68623262 263.99836552 288.68777777 C244.08016117 288.70150353 224.16199611 288.69606432 204.24379265 288.68459255 C186.02052865 288.6746576 167.79736613 288.68760525 149.57411778 288.71152674 C130.86080996 288.73590645 112.14754943 288.74552854 93.43422604 288.73887402 C82.92872096 288.73537961 72.42329398 288.73762863 61.9178009 288.75512505 C52.97587138 288.76983279 44.03407494 288.77050102 35.09214807 288.75305413 C30.53011772 288.74453047 25.96832528 288.74242795 21.40630722 288.75770569 C17.22903042 288.77152183 13.05219605 288.76682943 8.87494504 288.74746645 C7.36495892 288.74369671 5.85493761 288.74665648 4.34498274 288.7570781 C-4.96991323 288.81679051 -11.79656978 288.44056383 -19.14851379 282.12722778 C-19.78015442 281.4014856 -20.41179504 280.67574341 -21.06257629 279.92800903 C-21.70968567 279.21000122 -22.35679504 278.49199341 -23.02351379 277.75222778 C-27.09301524 271.60976433 -26.97829717 265.08354223 -26.95500183 257.96159363 C-26.95953294 256.94036909 -26.96406406 255.91914455 -26.96873248 254.86697382 C-26.98137082 251.45245815 -26.97975646 248.03810211 -26.97810364 244.62356567 C-26.98408914 242.17248835 -26.99089473 239.72141292 -26.99845886 237.27033997 C-27.0142878 231.30821179 -27.02056702 225.34614613 -27.02168362 219.38400275 C-27.02263529 214.53678773 -27.0267515 209.68958571 -27.03308487 204.8423748 C-27.05068742 191.08986844 -27.05992502 177.33739324 -27.05842392 163.58487553 C-27.05834401 162.84418625 -27.0582641 162.10349696 -27.05818176 161.34036255 C-27.05805912 160.2279675 -27.05805912 160.2279675 -27.057934 159.09309983 C-27.05712087 147.07115635 -27.07626779 135.04933809 -27.1044585 123.02743084 C-27.13319772 110.67386611 -27.14699829 98.32036244 -27.14527094 85.96676344 C-27.14460751 79.0349129 -27.15007959 72.10319374 -27.17162704 65.17137337 C-27.1917589 58.65340827 -27.19115462 52.13567314 -27.17659378 45.61767769 C-27.17450096 43.22638036 -27.17923464 40.8350658 -27.1913147 38.44379807 C-27.20674508 35.17767456 -27.19747273 31.91251084 -27.18205261 28.64640808 C-27.19233974 27.70174858 -27.20262686 26.75708907 -27.21322572 25.78380352 C-27.13747131 18.51556757 -25.35703702 13.2490247 -20.50398254 7.77957153 C-19.38829895 6.8321106 -19.38829895 6.8321106 -18.25007629 5.86550903 C-17.50886536 5.21839966 -16.76765442 4.57129028 -16.00398254 3.90457153 C-10.86968261 0.21618743 -6.17635004 -0.04419198 0 0 Z " fill="#CBD0D8" transform="translate(50.68757629394531,103.75949096679688)"/>
<path d="M0 0 C1.02175827 -0.00511093 2.04351654 -0.01022186 3.09623718 -0.01548767 C6.47201404 -0.0293808 9.84758663 -0.02842684 13.22338867 -0.02612305 C15.57362443 -0.03001061 17.92385948 -0.0343454 20.27409363 -0.03910828 C25.20098141 -0.04657025 30.12779754 -0.04627969 35.0546875 -0.04101562 C41.35951124 -0.03522626 47.6640407 -0.05213949 53.9688158 -0.0753603 C58.82364102 -0.09011461 63.6783957 -0.09096692 68.53323936 -0.08785057 C70.85719065 -0.0883631 73.18114595 -0.09358791 75.50507545 -0.10366249 C78.76008661 -0.11603981 82.01452877 -0.1092266 85.26953125 -0.09765625 C86.2240921 -0.10529999 87.17865295 -0.11294373 88.16213989 -0.12081909 C95.71352601 -0.0616816 102.23908997 1.29715379 108.07885742 6.4621582 C109.0147168 7.25686523 109.0147168 7.25686523 109.96948242 8.06762695 C114.97686429 14.01126299 116.42410574 19.74053523 116.36230469 27.37768555 C116.37092026 28.25036575 116.37953583 29.12304596 116.38841248 30.02217102 C116.41097417 32.88528759 116.40435087 35.74741735 116.39526367 38.6105957 C116.40050417 40.61545093 116.40678221 42.62030368 116.41404724 44.62515259 C116.42443385 48.81963736 116.41991579 53.01378252 116.40527344 57.20825195 C116.38810206 62.56358672 116.41157007 67.91784686 116.44676304 73.27306175 C116.46880517 77.41172291 116.46727884 81.55012974 116.45899773 85.68883133 C116.45818168 87.66224978 116.46497833 89.63568756 116.47976875 91.60905075 C116.61528643 112.96405962 116.61528643 112.96405962 109.10279846 121.15707397 C102.33634361 127.78978641 94.3591472 128.72156406 85.31713867 128.67871094 C84.29494232 128.68557419 83.27274597 128.69243744 82.21957397 128.69950867 C78.86002487 128.7177241 75.50094503 128.71394698 72.14135742 128.70825195 C69.79540862 128.71281582 67.44946116 128.71812201 65.10351562 128.72413635 C60.19452471 128.73305682 55.28569658 128.73065581 50.37670898 128.72070312 C44.09541503 128.70920712 37.81468272 128.72944067 31.53346252 128.75862026 C26.69149221 128.77699057 21.84965634 128.77668822 17.00765991 128.77098274 C14.69207979 128.77082967 12.37649047 128.77686205 10.0609436 128.78927422 C6.82046522 128.80419987 3.58102279 128.79349509 0.34057617 128.77636719 C-1.0841954 128.79086914 -1.0841954 128.79086914 -2.53775024 128.80566406 C-9.84410567 128.72505286 -15.09882344 126.95684158 -20.63208008 122.1262207 C-21.2637207 121.39145508 -21.89536133 120.65668945 -22.54614258 119.8996582 C-23.19325195 119.17004883 -23.84036133 118.44043945 -24.50708008 117.6887207 C-28.28466966 112.20855553 -28.468788 106.78140392 -28.46166992 100.36694336 C-28.46838715 99.49134262 -28.47510437 98.61574188 -28.48202515 97.71360779 C-28.5009625 94.83025375 -28.50492709 91.94713299 -28.50708008 89.0637207 C-28.51351059 87.05121771 -28.52023914 85.03871565 -28.5272522 83.0262146 C-28.53921403 78.81148105 -28.54293411 74.5968294 -28.54174805 70.38208008 C-28.54154484 64.99304142 -28.56885429 59.60452998 -28.60329247 54.21561623 C-28.62557639 50.05992236 -28.62958514 45.90435512 -28.62852859 41.74860764 C-28.63088201 39.76236529 -28.63969088 37.77611931 -28.65519333 35.78993607 C-28.67488494 33.00664013 -28.66900304 30.224478 -28.65698242 27.44116211 C-28.66822144 26.62843338 -28.67946045 25.81570465 -28.69104004 24.97834778 C-28.61613046 18.120344 -26.54829024 12.95373338 -21.98754883 7.8137207 C-20.87186523 6.86625977 -20.87186523 6.86625977 -19.73364258 5.8996582 C-18.99243164 5.25254883 -18.2512207 4.60543945 -17.48754883 3.9387207 C-11.85095556 -0.11050144 -6.71122672 -0.01730786 0 0 Z " fill="#D29F6B" transform="translate(100.171142578125,183.725341796875)"/>
<path d="M0 0 C11.88 0 23.76 0 36 0 C42 16 42 16 42 19 C42.66902344 19.12375 43.33804688 19.2475 44.02734375 19.375 C51.67682628 21.01784189 58.23047032 23.78473856 65.12280273 27.39453125 C69.17340142 29.4689392 69.17340142 29.4689392 73.625 29.9296875 C77.65571635 28.35187419 81.36874442 26.25468464 85.16015625 24.1796875 C88.35012767 22.85455494 88.89981283 22.73431763 92 24 C93.92768649 25.6022424 95.6853254 27.1935998 97.45703125 28.953125 C98.21786263 29.69897858 98.21786263 29.69897858 98.99406433 30.4598999 C100.06109392 31.51177075 101.12411367 32.56772275 102.18334961 33.62744141 C103.80893795 35.24645236 105.45699546 36.83995991 107.10742188 38.43359375 C108.14208984 39.4594622 109.17534327 40.48675971 110.20703125 41.515625 C110.95059624 42.22685516 110.95059624 42.22685516 111.70918274 42.95245361 C113.06567383 44.33691406 113.06567383 44.33691406 115 47 C114.78299221 52.24090647 111.67007748 56.56373101 109.1796875 61.0625 C107.83036673 64.42239808 107.83202553 65.62407379 109 69 C109.88638593 70.87913817 110.82894765 72.73234562 111.8125 74.5625 C119 88.5564759 119 88.5564759 119 96 C119.70125 96.18175781 120.4025 96.36351563 121.125 96.55078125 C122.07375 96.80214844 123.0225 97.05351563 124 97.3125 C124.928125 97.55613281 125.85625 97.79976563 126.8125 98.05078125 C130.6027038 99.17948165 134.29710405 100.61141402 138 102 C138 113.88 138 125.76 138 138 C135.23625 138.99 132.4725 139.98 129.625 141 C128.75568848 141.31324219 127.88637695 141.62648437 126.99072266 141.94921875 C126.3054248 142.19285156 125.62012695 142.43648437 124.9140625 142.6875 C124.2123291 142.93886719 123.5105957 143.19023437 122.78759766 143.44921875 C121 144 121 144 119 144 C118.87625 144.66902344 118.7525 145.33804688 118.625 146.02734375 C116.98215811 153.67682628 114.21526144 160.23047032 110.60546875 167.12280273 C108.5310608 171.17340142 108.5310608 171.17340142 108.0703125 175.625 C109.64812581 179.65571635 111.74531536 183.36874442 113.8203125 187.16015625 C115.14544506 190.35012767 115.26568237 190.89981283 114 194 C112.3977576 195.92768649 110.8064002 197.6853254 109.046875 199.45703125 C108.54963928 199.96425217 108.05240356 200.47147308 107.5401001 200.99406433 C106.48822925 202.06109392 105.43227725 203.12411367 104.37255859 204.18334961 C102.75354764 205.80893795 101.16004009 207.45699546 99.56640625 209.10742188 C98.5405378 210.14208984 97.51324029 211.17534327 96.484375 212.20703125 C96.01022156 212.70274124 95.53606812 213.19845123 95.04754639 213.70918274 C93.66308594 215.06567383 93.66308594 215.06567383 91 217 C85.75909353 216.78299221 81.43626899 213.67007748 76.9375 211.1796875 C73.49963376 209.79905505 72.45722278 209.78613067 69 211 C66.23025186 212.23380365 63.52359888 213.58060205 60.8125 214.9375 C54.5599508 217.9888998 48.96263941 220.11585531 42 221 C41.72736328 222.051875 41.72736328 222.051875 41.44921875 223.125 C41.07216797 224.548125 41.07216797 224.548125 40.6875 226 C40.44386719 226.928125 40.20023438 227.85625 39.94921875 228.8125 C38.82051835 232.6027038 37.38858598 236.29710405 36 240 C24.12 240 12.24 240 0 240 C-1.485 235.854375 -1.485 235.854375 -3 231.625 C-3.31324219 230.75568848 -3.62648438 229.88637695 -3.94921875 228.99072266 C-4.19285156 228.3054248 -4.43648438 227.62012695 -4.6875 226.9140625 C-4.93886719 226.2123291 -5.19023437 225.5105957 -5.44921875 224.78759766 C-6 223 -6 223 -6 221 C-6.85658203 220.88785156 -6.85658203 220.88785156 -7.73046875 220.7734375 C-16.56411285 219.34095467 -24.33811133 215.65632996 -32.078125 211.24609375 C-35.45574542 209.80563798 -36.58342418 209.79540385 -40 211 C-43.11093391 212.51254342 -46.12602868 214.15976854 -49.16015625 215.8203125 C-52.35012767 217.14544506 -52.89981283 217.26568237 -56 216 C-57.92768649 214.3977576 -59.6853254 212.8064002 -61.45703125 211.046875 C-61.96425217 210.54963928 -62.47147308 210.05240356 -62.99406433 209.5401001 C-64.06109392 208.48822925 -65.12411367 207.43227725 -66.18334961 206.37255859 C-67.80893795 204.75354764 -69.45699546 203.16004009 -71.10742188 201.56640625 C-72.14208984 200.5405378 -73.17534327 199.51324029 -74.20703125 198.484375 C-74.70274124 198.01022156 -75.19845123 197.53606812 -75.70918274 197.04754639 C-77.06567383 195.66308594 -77.06567383 195.66308594 -79 193 C-78.78299221 187.75909353 -75.67007748 183.43626899 -73.1796875 178.9375 C-71.81339715 175.53534654 -71.81298715 174.42047124 -73 171 C-74.08533337 168.61504949 -75.20321593 166.27835637 -76.375 163.9375 C-79.52596927 157.45672049 -81.61242262 151.09646716 -83 144 C-84.27875 143.7525 -85.5575 143.505 -86.875 143.25 C-92 142 -92 142 -102 138 C-102 126.12 -102 114.24 -102 102 C-86 96 -86 96 -83 96 C-82.92523438 95.42894531 -82.85046875 94.85789062 -82.7734375 94.26953125 C-81.34095467 85.43588715 -77.65632996 77.66188867 -73.24609375 69.921875 C-71.80563798 66.54425458 -71.79540385 65.41657582 -73 62 C-74.51254342 58.88906609 -76.15976854 55.87397132 -77.8203125 52.83984375 C-79.14544506 49.64987233 -79.26568237 49.10018717 -78 46 C-76.3977576 44.07231351 -74.8064002 42.3146746 -73.046875 40.54296875 C-72.54963928 40.03574783 -72.05240356 39.52852692 -71.5401001 39.00593567 C-70.48822925 37.93890608 -69.43227725 36.87588633 -68.37255859 35.81665039 C-66.75354764 34.19106205 -65.16004009 32.54300454 -63.56640625 30.89257812 C-62.5405378 29.85791016 -61.51324029 28.82465673 -60.484375 27.79296875 C-59.77314484 27.04940376 -59.77314484 27.04940376 -59.04754639 26.29081726 C-57.66308594 24.93432617 -57.66308594 24.93432617 -55 23 C-49.75909353 23.21700779 -45.43626899 26.32992252 -40.9375 28.8203125 C-37.57760192 30.16963327 -36.37592621 30.16797447 -33 29 C-31.12086183 28.11361407 -29.26765438 27.17105235 -27.4375 26.1875 C-13.4435241 19 -13.4435241 19 -6 19 C-5.62875 17.081875 -5.62875 17.081875 -5.25 15.125 C-4 10 -4 10 0 0 Z M-42 55 C-42.67417969 55.57234375 -43.34835937 56.1446875 -44.04296875 56.734375 C-59.18343939 70.7315149 -69.22723022 92.86748662 -70.41015625 113.35546875 C-71.17521995 139.23193521 -63.04540947 162.88231473 -45.28710938 181.8046875 C-29.5872817 197.8284456 -8.15754651 207.76114336 14.30786133 208.53857422 C39.78691915 208.75496625 62.80763168 199.69993496 81.1796875 181.91015625 C98.68357011 164.25793565 106.31423491 140.87287584 106.3828125 116.4699707 C106.02773048 94.94867141 96.76542322 76.11283811 83 60 C82.42765625 59.32582031 81.8553125 58.65164062 81.265625 57.95703125 C66.99219226 42.5176993 44.14933886 32.71532819 23.26953125 31.7265625 C-1.97511847 31.05770702 -22.84176173 38.63284878 -42 55 Z " fill="#FCC528" transform="translate(350,24)"/>
<path d="M0 0 C1.02175827 -0.00511093 2.04351654 -0.01022186 3.09623718 -0.01548767 C6.47201404 -0.0293808 9.84758663 -0.02842684 13.22338867 -0.02612305 C15.57362443 -0.03001061 17.92385948 -0.0343454 20.27409363 -0.03910828 C25.20098141 -0.04657025 30.12779754 -0.04627969 35.0546875 -0.04101562 C41.35951124 -0.03522626 47.6640407 -0.05213949 53.9688158 -0.0753603 C58.82364102 -0.09011461 63.6783957 -0.09096692 68.53323936 -0.08785057 C70.85719065 -0.0883631 73.18114595 -0.09358791 75.50507545 -0.10366249 C78.76008661 -0.11603981 82.01452877 -0.1092266 85.26953125 -0.09765625 C86.2240921 -0.10529999 87.17865295 -0.11294373 88.16213989 -0.12081909 C95.71352601 -0.0616816 102.23908997 1.29715379 108.07885742 6.4621582 C109.0147168 7.25686523 109.0147168 7.25686523 109.96948242 8.06762695 C114.97686429 14.01126299 116.42410574 19.74053523 116.36230469 27.37768555 C116.37092026 28.25036575 116.37953583 29.12304596 116.38841248 30.02217102 C116.41097417 32.88528759 116.40435087 35.74741735 116.39526367 38.6105957 C116.40050417 40.61545093 116.40678221 42.62030368 116.41404724 44.62515259 C116.42443385 48.81963736 116.41991579 53.01378252 116.40527344 57.20825195 C116.38810206 62.56358672 116.41157007 67.91784686 116.44676304 73.27306175 C116.46880517 77.41172291 116.46727884 81.55012974 116.45899773 85.68883133 C116.45818168 87.66224978 116.46497833 89.63568756 116.47976875 91.60905075 C116.61528643 112.96405962 116.61528643 112.96405962 109.10279846 121.15707397 C102.33634361 127.78978641 94.3591472 128.72156406 85.31713867 128.67871094 C84.29494232 128.68557419 83.27274597 128.69243744 82.21957397 128.69950867 C78.86002487 128.7177241 75.50094503 128.71394698 72.14135742 128.70825195 C69.79540862 128.71281582 67.44946116 128.71812201 65.10351562 128.72413635 C60.19452471 128.73305682 55.28569658 128.73065581 50.37670898 128.72070312 C44.09541503 128.70920712 37.81468272 128.72944067 31.53346252 128.75862026 C26.69149221 128.77699057 21.84965634 128.77668822 17.00765991 128.77098274 C14.69207979 128.77082967 12.37649047 128.77686205 10.0609436 128.78927422 C6.82046522 128.80419987 3.58102279 128.79349509 0.34057617 128.77636719 C-1.0841954 128.79086914 -1.0841954 128.79086914 -2.53775024 128.80566406 C-9.84410567 128.72505286 -15.09882344 126.95684158 -20.63208008 122.1262207 C-21.2637207 121.39145508 -21.89536133 120.65668945 -22.54614258 119.8996582 C-23.19325195 119.17004883 -23.84036133 118.44043945 -24.50708008 117.6887207 C-28.28466966 112.20855553 -28.468788 106.78140392 -28.46166992 100.36694336 C-28.46838715 99.49134262 -28.47510437 98.61574188 -28.48202515 97.71360779 C-28.5009625 94.83025375 -28.50492709 91.94713299 -28.50708008 89.0637207 C-28.51351059 87.05121771 -28.52023914 85.03871565 -28.5272522 83.0262146 C-28.53921403 78.81148105 -28.54293411 74.5968294 -28.54174805 70.38208008 C-28.54154484 64.99304142 -28.56885429 59.60452998 -28.60329247 54.21561623 C-28.62557639 50.05992236 -28.62958514 45.90435512 -28.62852859 41.74860764 C-28.63088201 39.76236529 -28.63969088 37.77611931 -28.65519333 35.78993607 C-28.67488494 33.00664013 -28.66900304 30.224478 -28.65698242 27.44116211 C-28.66822144 26.62843338 -28.67946045 25.81570465 -28.69104004 24.97834778 C-28.61613046 18.120344 -26.54829024 12.95373338 -21.98754883 7.8137207 C-20.87186523 6.86625977 -20.87186523 6.86625977 -19.73364258 5.8996582 C-18.99243164 5.25254883 -18.2512207 4.60543945 -17.48754883 3.9387207 C-11.85095556 -0.11050144 -6.71122672 -0.01730786 0 0 Z M-12.17114258 21.2746582 C-12.65590564 24.23455995 -12.83730089 26.61318767 -12.78637695 29.56567383 C-12.79192596 30.38742599 -12.79747498 31.20917816 -12.80319214 32.05583191 C-12.81497674 34.76478898 -12.79072634 37.47206882 -12.76489258 40.1809082 C-12.76318108 42.06750411 -12.76324756 43.95410239 -12.76501465 45.84069824 C-12.76336208 49.79173582 -12.74467575 53.74220556 -12.71313477 57.69311523 C-12.67345741 62.75401293 -12.66908993 67.81416702 -12.6765976 72.87519073 C-12.67966921 76.77002762 -12.66753994 80.66469777 -12.65046692 84.55949402 C-12.64344267 86.42537897 -12.64031169 88.29128281 -12.64115906 90.15718079 C-12.63935847 92.76634784 -12.61795474 95.374629 -12.59106445 97.98364258 C-12.59399506 98.75262375 -12.59692566 99.52160492 -12.59994507 100.31388855 C-12.52881684 104.79379921 -11.95386658 107.71641747 -9.17114258 111.2746582 C-6.90008436 112.41018731 -5.65177868 112.40491415 -3.12992859 112.4151001 C-2.2845755 112.42081024 -1.43922241 112.42652039 -0.56825256 112.43240356 C0.36112625 112.43352142 1.29050507 112.43463928 2.24804688 112.43579102 C3.22541809 112.44075592 4.20278931 112.44572083 5.20977783 112.45083618 C8.45390519 112.46548106 11.69798364 112.47226388 14.94213867 112.4777832 C17.19174705 112.48353299 19.44135541 112.48929074 21.69096375 112.49505615 C26.41295602 112.50557293 31.13493124 112.51141109 35.85693359 112.51489258 C41.90989778 112.52037699 47.96263697 112.5444012 54.01553059 112.57286453 C58.66434896 112.59148185 63.31311306 112.59669605 67.96196556 112.59822845 C70.19350603 112.60125784 72.42504548 112.60929594 74.65654945 112.62241364 C77.77836878 112.63945399 80.89963751 112.63759856 84.02148438 112.63110352 C84.9447905 112.6403183 85.86809662 112.64953308 86.81938171 112.6590271 C91.59308551 112.62788972 95.02999513 112.51950178 98.82885742 109.2746582 C100.07138956 105.5470618 99.98440909 102.0778694 99.98999023 98.19482422 C99.99495514 97.37175781 99.99992004 96.54869141 100.0050354 95.70068359 C100.01964649 92.9766354 100.02645656 90.2526454 100.03198242 87.52856445 C100.03773386 85.63671364 100.0434916 83.74486286 100.04925537 81.85301208 C100.05976175 77.88605477 100.06560709 73.91911771 100.0690918 69.95214844 C100.07458186 64.86652155 100.09862232 59.78116168 100.12706375 54.69561863 C100.14567532 50.78801182 100.1508949 46.88046959 100.15242767 42.97282219 C100.15545707 41.09771194 100.16349525 39.2226029 100.17661285 37.34753609 C100.19364571 34.72611185 100.1918002 32.10534366 100.18530273 29.48388672 C100.19451752 28.70816818 100.2037323 27.93244965 100.21322632 27.13322449 C100.18842615 23.94315171 100.03442676 21.65207191 98.49407959 18.82408142 C95.29855346 15.85077102 91.99211469 16.15678866 87.84838867 16.17700195 C86.80013916 16.17949951 85.75188965 16.18199707 84.671875 16.18457031 C83.3418042 16.19367432 82.0117334 16.20277832 80.64135742 16.2121582 C76.41323242 16.2327832 72.18510742 16.2534082 67.82885742 16.2746582 C67.82885742 26.8346582 67.82885742 37.3946582 67.82885742 48.2746582 C51.98885742 48.2746582 36.14885742 48.2746582 19.82885742 48.2746582 C19.82885742 37.7146582 19.82885742 27.1546582 19.82885742 16.2746582 C15.47698242 16.1715332 11.12510742 16.0684082 6.64135742 15.9621582 C5.2772876 15.91663818 3.91321777 15.87111816 2.5078125 15.82421875 C0.88202271 15.80548706 0.88202271 15.80548706 -0.77661133 15.78637695 C-1.88157959 15.76019287 -2.98654785 15.73400879 -4.125 15.70703125 C-8.29429656 16.48394994 -9.56204081 17.96035989 -12.17114258 21.2746582 Z " fill="#000000" transform="translate(100.171142578125,183.725341796875)"/>
<path d="M0 0 C1.00121462 -0.00638882 2.00242925 -0.01277764 3.03398371 -0.01936007 C6.39297471 -0.03463534 9.75079105 -0.01413097 13.10974121 0.00622559 C15.51613252 0.00272517 17.92252152 -0.00293249 20.3289032 -0.0105896 C26.18880369 -0.02337612 32.04838899 -0.01288464 37.90823877 0.00852364 C44.73239629 0.03253941 51.55647449 0.03081892 58.38066489 0.02821773 C70.55686776 0.02452769 82.7329074 0.04535179 94.90905762 0.07946777 C106.72387823 0.11255907 118.53852753 0.12672606 130.35339355 0.1204834 C143.21931008 0.11371883 156.08515484 0.1161815 168.95106077 0.1358428 C169.97165748 0.13740203 169.97165748 0.13740203 171.01287231 0.13899276 C172.37940866 0.14108365 173.74594498 0.14319462 175.11248127 0.14532593 C179.86912707 0.15222056 184.62575076 0.152891 189.38240051 0.15144348 C195.78460503 0.14985316 202.18664739 0.16475279 208.58880043 0.19067001 C210.94102801 0.19784309 213.29327741 0.19990998 215.64551353 0.19655228 C218.85138343 0.19284841 222.0566507 0.20754761 225.26245117 0.22705078 C226.1977587 0.22172286 227.13306623 0.21639493 228.0967164 0.21090555 C232.90730671 0.26154788 236.25424829 0.43262648 240.13122559 3.62145996 C241.99753474 7.35407826 241.35921464 11.82616781 241.38122559 15.93395996 C241.41216309 17.35998535 241.41216309 17.35998535 241.44372559 18.81481934 C241.49401769 27.81081938 241.49401769 27.81081938 238.13122559 31.62145996 C235.384016 32.53719649 233.77501306 32.74813013 230.94699955 32.75288773 C230.09006128 32.75672887 229.23312302 32.76057002 228.35021693 32.76452756 C227.4084016 32.76366108 226.46658627 32.76279459 225.49623108 32.76190186 C224.49601974 32.76487298 223.4958084 32.7678441 222.46528763 32.77090526 C219.09814725 32.77960918 215.73104235 32.78110192 212.3638916 32.78259277 C209.95617598 32.78721967 207.5484611 32.79224415 205.14074707 32.79763794 C198.58921303 32.81077444 192.03768639 32.81724558 185.4861424 32.8216486 C181.39667903 32.82441058 177.30721804 32.82864779 173.21775627 32.83315277 C161.89849909 32.84534427 150.57924381 32.85564452 139.2599802 32.85902786 C138.17330048 32.85935721 138.17330048 32.85935721 137.06466764 32.85969321 C136.33847152 32.85991149 135.6122754 32.86012977 134.86407334 32.86035466 C133.39249583 32.86079813 131.92091832 32.86124469 130.44934082 32.86169434 C129.71938595 32.86191577 128.98943107 32.8621372 128.23735636 32.86236534 C116.40324424 32.86631535 104.56919363 32.88377609 92.73510528 32.90705386 C80.58961525 32.9307517 68.44415611 32.94322896 56.29864258 32.94439578 C49.47754468 32.94531331 42.65652697 32.95108537 35.83545113 32.96921539 C29.42264595 32.98620012 23.00995253 32.98788078 16.59712982 32.97907639 C14.23963196 32.97830285 11.8821261 32.98269011 9.52464867 32.99253464 C6.31398277 33.00515892 3.10386503 32.99942922 -0.10679626 32.98895264 C-1.51617318 33.00103724 -1.51617318 33.00103724 -2.95402235 33.01336598 C-9.21268518 32.96538296 -9.21268518 32.96538296 -12.41639805 31.28599167 C-16.00135925 27.17735859 -15.16738245 21.38555543 -15.24377441 16.24645996 C-15.28115723 15.30028809 -15.31854004 14.35411621 -15.35705566 13.37927246 C-15.36865723 12.46145996 -15.38025879 11.54364746 -15.39221191 10.59802246 C-15.41203125 9.76351563 -15.43185059 8.92900879 -15.45227051 8.06921387 C-13.51238798 -0.06855277 -6.92562955 -0.09269035 0 0 Z " fill="#959EA9" transform="translate(118.8687744140625,455.3785400390625)"/>
<path d="M0 0 C19.52737578 15.14421482 33.2451069 35.4982863 36.90625 60.25390625 C39.29190283 85.53157536 32.45636088 109.86552923 16.3046875 129.4765625 C1.71448492 146.46308246 -18.82418859 157.48061093 -41.09375 160.25390625 C-68.0187547 162.13101786 -90.62135818 154.74375726 -111.09375 137.25390625 C-111.76792969 136.6815625 -112.44210937 136.10921875 -113.13671875 135.51953125 C-128.96817105 120.88358908 -138.31235069 97.94703647 -139.3671875 76.64453125 C-140.06355501 51.81467713 -132.15640365 31.05572104 -116.09375 12.25390625 C-115.52140625 11.57972656 -114.9490625 10.90554687 -114.359375 10.2109375 C-85.24646502 -21.2800072 -34.25755926 -24.26577115 0 0 Z M-104.09375 23.25390625 C-104.75761719 23.88683594 -105.42148437 24.51976563 -106.10546875 25.171875 C-117.45894652 36.72946024 -123.40270328 54.92698381 -123.53125 70.75390625 C-123.24100926 91.35691116 -115.98906285 108.81812491 -101.96875 123.87890625 C-88.89440883 136.41409933 -71.19955507 144.69744192 -52.96875 144.56640625 C-51.72315308 144.55794678 -51.72315308 144.55794678 -50.45239258 144.54931641 C-29.14308833 144.13466662 -11.11213433 135.25665107 3.5546875 120.0078125 C11.09527251 111.17706095 15.62222496 101.31588533 18.90625 90.25390625 C19.27556641 89.04734375 19.27556641 89.04734375 19.65234375 87.81640625 C24.4652978 68.6973612 19.56930107 49.92420154 9.90625 33.25390625 C7.78095934 30.03406637 5.47729308 27.12742499 2.90625 24.25390625 C1.92398438 23.13242188 1.92398438 23.13242188 0.921875 21.98828125 C-8.4872994 11.8923058 -19.98764679 6.14478064 -33.09375 2.25390625 C-33.898125 2.00769531 -34.7025 1.76148437 -35.53125 1.5078125 C-60.94864837 -4.89066452 -86.44312188 4.95256373 -104.09375 23.25390625 Z " fill="#030301" transform="translate(419.09375,71.74609375)"/>
<path d="M0 0 C42.9 0 85.8 0 130 0 C130.99 6.435 130.99 6.435 132 13 C133.26660341 16.09268809 134.45032328 18.75826716 136.0625 21.625 C139.97386895 28.92160686 139.97386895 28.92160686 141 32 C90.84 32 40.68 32 -11 32 C-8.03 25.73 -5.06 19.46 -2 13 C-1.34 8.71 -0.68 4.42 0 0 Z " fill="#A9B1BC" transform="translate(167,408)"/>
<path d="M0 0 C8.78812514 5.41490539 15.41517292 13.08128109 18.25390625 23.08984375 C20.99751299 35.33200622 19.58876214 46.71777087 12.8203125 57.5546875 C6.27784883 66.51358876 -2.24706037 72.29686478 -13.15625 74.36328125 C-24.13710616 75.89154474 -34.80736741 73.55534014 -44.11328125 67.4609375 C-53.19830927 60.4748114 -58.6516705 51.03435051 -60.4296875 39.6796875 C-61.55720948 27.67963211 -58.65727167 17.80837518 -51.0234375 8.421875 C-37.3990667 -6.47143229 -17.83073132 -9.68936847 0 0 Z M-40.203125 21.8359375 C-44.13523177 27.74662028 -44.12832027 33.80084174 -43.4296875 40.6796875 C-41.65626317 47.32441664 -36.9830228 51.85336709 -31.4296875 55.6796875 C-25.43081746 58.62031007 -18.5468522 58.77852538 -12.1171875 57.0625 C-5.98835889 54.35719675 -1.19015958 49.27105055 1.7421875 43.2890625 C3.64837107 37.28278598 3.63469937 30.17677192 1.0703125 24.3671875 C-2.41006008 18.43445275 -7.8653068 13.74805006 -14.4296875 11.6796875 C-26.15363712 10.25359888 -32.73711111 12.99350765 -40.203125 21.8359375 Z " fill="#020100" transform="translate(388.4296875,109.3203125)"/>
<path d="M0 0 C36.96 0 73.92 0 112 0 C112 5.28 112 10.56 112 16 C75.04 16 38.08 16 0 16 C0 10.72 0 5.44 0 0 Z " fill="#000000" transform="translate(104,152)"/>
<path d="M0 0 C5.28 0 10.56 0 16 0 C16 5.28 16 10.56 16 16 C10.72 16 5.44 16 0 16 C0 10.72 0 5.44 0 0 Z " fill="#000000" transform="translate(392,360)"/>
<path d="M0 0 C5.28 0 10.56 0 16 0 C16 5.28 16 10.56 16 16 C10.72 16 5.44 16 0 16 C0 10.72 0 5.44 0 0 Z " fill="#000000" transform="translate(360,360)"/>
<path d="M0 0 C5.28 0 10.56 0 16 0 C16 5.28 16 10.56 16 16 C10.72 16 5.44 16 0 16 C0 10.72 0 5.44 0 0 Z " fill="#000000" transform="translate(328,360)"/>
<path d="M0 0 C5.28 0 10.56 0 16 0 C16 5.28 16 10.56 16 16 C10.72 16 5.44 16 0 16 C0 10.72 0 5.44 0 0 Z " fill="#000000" transform="translate(376,296)"/>
<path d="M0 0 C5.28 0 10.56 0 16 0 C16 5.28 16 10.56 16 16 C10.72 16 5.44 16 0 16 C0 10.72 0 5.44 0 0 Z " fill="#000000" transform="translate(344,296)"/>
<path d="M0 0 C5.28 0 10.56 0 16 0 C16 5.28 16 10.56 16 16 C10.72 16 5.44 16 0 16 C0 10.72 0 5.44 0 0 Z " fill="#000000" transform="translate(312,296)"/>
<path d="M0 0 C5.28 0 10.56 0 16 0 C16 5.28 16 10.56 16 16 C10.72 16 5.44 16 0 16 C0 10.72 0 5.44 0 0 Z " fill="#B27946" transform="translate(136,200)"/>
<path d="M0 0 C5.28 0 10.56 0 16 0 C16 5.28 16 10.56 16 16 C10.72 16 5.44 16 0 16 C0 10.72 0 5.44 0 0 Z " fill="#000000" transform="translate(72,152)"/>
</svg>
