<?xml version="1.0" standalone="no"?>
<!DOCTYPE svg PUBLIC "-//W3C//DTD SVG 20010904//EN"
 "http://www.w3.org/TR/2001/REC-SVG-20010904/DTD/svg10.dtd">
<svg version="1.0" xmlns="http://www.w3.org/2000/svg"
 width="512.000000pt" height="512.000000pt" viewBox="0 0 512.000000 512.000000"
 preserveAspectRatio="xMidYMid meet">

<g transform="translate(0.000000,512.000000) scale(0.100000,-0.100000)"
fill="#000000" stroke="none">
<path d="M763 5102 c-100 -35 -171 -115 -193 -216 -8 -36 -10 -710 -8 -2356
l3 -2305 21 -46 c31 -66 78 -114 142 -146 l57 -28 1775 0 1775 0 57 28 c64 32
111 80 142 146 l21 46 0 2335 0 2335 -28 57 c-32 64 -80 111 -146 142 l-46 21
-1760 2 c-1669 2 -1763 2 -1812 -15z m3546 -196 c15 -8 32 -26 39 -41 17 -38
17 -4572 0 -4610 -26 -58 84 -55 -1788 -55 -1872 0 -1762 -3 -1788 55 -19 40
-17 4580 2 4614 29 53 -68 50 1784 51 1472 0 1727 -2 1751 -14z"/>
<path d="M1011 4706 c-87 -48 -50 -186 49 -186 51 0 100 49 100 99 0 75 -83
124 -149 87z"/>
<path d="M2430 4714 c-539 -67 -970 -369 -1200 -839 -200 -408 -202 -911 -5
-1307 208 -418 602 -720 1070 -818 128 -27 350 -37 470 -21 211 28 417 101
590 209 l50 31 100 -98 c127 -126 164 -146 270 -146 64 0 89 5 129 24 105 52
170 155 170 271 0 98 -32 159 -148 278 l-95 98 31 49 c85 135 161 334 194 505
27 140 25 379 -4 527 -81 412 -315 769 -650 994 -169 113 -342 185 -542 224
-82 16 -355 28 -430 19z m348 -210 c466 -69 859 -399 1022 -859 53 -152 73
-262 74 -425 1 -222 -38 -391 -136 -583 l-51 -98 -166 164 c-194 191 -225 210
-341 211 -122 1 -213 -54 -272 -167 -19 -34 -23 -58 -23 -127 0 -119 15 -143
212 -342 l166 -166 -99 -50 c-267 -134 -544 -171 -836 -112 -267 55 -471 156
-647 325 -198 189 -323 423 -377 710 -24 129 -23 358 4 490 36 182 106 353
202 496 60 88 240 265 330 324 272 177 625 256 938 209z m771 -2119 c322 -321
326 -325 326 -366 0 -34 -6 -46 -34 -71 -29 -26 -39 -30 -74 -25 -38 5 -65 29
-364 329 -288 289 -323 327 -323 355 0 70 48 117 110 109 29 -5 81 -52 359
-331z"/>
<path d="M2500 3511 c-94 -31 -177 -107 -204 -188 -50 -146 20 -313 156 -374
65 -29 181 -32 241 -6 152 66 224 249 155 398 -31 68 -86 125 -147 152 -49 22
-160 32 -201 18z m141 -219 c25 -23 32 -36 33 -71 1 -37 -4 -47 -33 -73 -29
-26 -39 -30 -75 -25 -53 7 -86 44 -86 95 0 90 94 134 161 74z"/>
<path d="M4030 4693 c-28 -25 -33 -36 -33 -73 0 -37 5 -48 33 -73 28 -25 38
-28 74 -24 116 16 116 178 0 194 -36 4 -46 1 -74 -24z"/>
<path d="M1694 1355 c-41 -28 -45 -58 -42 -334 l3 -263 33 -29 32 -29 826 0
c886 0 867 -1 894 49 6 12 10 124 10 291 l0 272 -29 29 -29 29 -839 0 c-719 0
-842 -2 -859 -15z m1556 -320 l0 -135 -700 0 -700 0 0 135 0 135 700 0 700 0
0 -135z"/>
<path d="M1011 586 c-87 -48 -50 -186 49 -186 51 0 100 49 100 99 0 75 -83
124 -149 87z"/>
<path d="M4030 573 c-28 -25 -33 -36 -33 -73 0 -37 5 -48 33 -73 28 -25 38
-28 74 -24 54 7 86 44 86 97 0 53 -32 90 -86 97 -36 4 -46 1 -74 -24z"/>
</g>
</svg>
