<?xml version="1.0" standalone="no"?>
<!DOCTYPE svg PUBLIC "-//W3C//DTD SVG 20010904//EN"
 "http://www.w3.org/TR/2001/REC-SVG-20010904/DTD/svg10.dtd">
<svg version="1.0" xmlns="http://www.w3.org/2000/svg"
 width="512.000000pt" height="512.000000pt" viewBox="0 0 512.000000 512.000000"
 preserveAspectRatio="xMidYMid meet">

<g transform="translate(0.000000,512.000000) scale(0.100000,-0.100000)"
fill="#000000" stroke="none">
<path d="M63 3623 c-13 -2 -32 -16 -43 -30 -19 -24 -20 -40 -20 -222 0 -229 1
-232 85 -257 59 -17 85 -43 85 -84 0 -42 -27 -68 -86 -86 -89 -25 -84 7 -84
-604 l0 -532 29 -29 c26 -25 37 -29 85 -29 l56 0 0 -89 c0 -110 10 -138 55
-156 50 -22 1548 -22 1599 -1 43 18 56 55 56 162 l0 84 85 0 85 0 0 -99 c0
-91 2 -102 24 -128 l24 -28 1381 -3 c1507 -3 1439 -5 1461 53 6 15 10 67 10
116 l0 89 56 0 c48 0 59 4 85 29 l29 29 0 532 c0 611 5 579 -84 604 -59 18
-86 44 -86 86 0 41 26 67 85 84 84 25 85 28 85 258 0 194 0 197 -24 225 l-24
28 -2494 1 c-1371 1 -2503 -1 -2515 -3z m4887 -258 l0 -95 -37 -19 c-45 -23
-84 -62 -109 -111 -27 -52 -26 -171 3 -226 23 -43 79 -98 119 -116 l24 -11 0
-434 0 -433 -2390 0 -2390 0 0 433 0 434 24 11 c44 20 99 77 122 127 55 116 8
261 -104 323 l-42 23 0 95 0 94 2390 0 2390 0 0 -95z m-3242 -1657 l-3 -43
-682 -3 -683 -2 0 45 0 45 686 0 685 0 -3 -42z m3072 -3 l0 -45 -1280 0 -1280
0 0 45 0 45 1280 0 1280 0 0 -45z"/>
<path d="M573 3279 c-64 -19 -64 -19 -61 -519 l3 -449 23 -23 c22 -23 27 -23
295 -26 149 -2 282 0 295 3 12 3 31 14 42 25 19 19 20 35 20 483 l0 464 -26
24 -26 24 -266 2 c-149 1 -281 -2 -299 -8z m447 -509 l0 -340 -170 0 -170 0 0
340 0 340 170 0 170 0 0 -340z"/>
<path d="M1435 3283 c-11 -3 -30 -14 -42 -26 l-23 -20 0 -464 c0 -448 1 -464
20 -483 11 -11 30 -22 42 -25 13 -3 146 -5 295 -3 268 3 273 3 295 26 l23 23
3 449 c3 506 4 500 -66 519 -36 11 -507 14 -547 4z m445 -513 l0 -340 -170 0
-170 0 0 340 0 340 170 0 170 0 0 -340z"/>
<path d="M2273 3275 c-17 -7 -36 -22 -42 -34 -7 -13 -11 -167 -11 -470 l0
-450 24 -28 24 -28 292 0 292 0 24 28 24 28 0 450 c0 304 -4 457 -11 471 -23
42 -62 48 -331 48 -192 -1 -261 -4 -285 -15z m457 -505 l0 -340 -170 0 -170 0
0 340 0 340 170 0 170 0 0 -340z"/>
<path d="M3133 3279 c-64 -19 -64 -19 -61 -519 l3 -449 23 -23 c22 -23 27 -23
295 -26 149 -2 282 0 295 3 12 3 31 14 42 25 19 19 20 35 20 483 l0 464 -26
24 -26 24 -266 2 c-149 1 -281 -2 -299 -8z m447 -509 l0 -340 -170 0 -170 0 0
340 0 340 170 0 170 0 0 -340z"/>
<path d="M3995 3283 c-11 -3 -30 -14 -42 -26 l-23 -20 0 -464 c0 -448 1 -464
20 -483 11 -11 30 -22 42 -25 13 -3 146 -5 295 -3 268 3 273 3 295 26 l23 23
3 449 c3 506 4 500 -66 519 -36 11 -507 14 -547 4z m445 -513 l0 -340 -170 0
-170 0 0 340 0 340 170 0 170 0 0 -340z"/>
</g>
</svg>
